<svg version="1.1" xmlns="http://www.w3.org/2000/svg" viewBox="0 0 172.28579711914062 168.85714721679688" width="172.28579711914062" height="168.85714721679688" class="excalidraw-svg">
  <!-- svg-source:excalidraw -->
  
  <defs>
    <style class="style-fonts">
      
    </style>
    
  </defs>
  <rect x="0" y="0" width="172.28579711914062" height="168.85714721679688" fill="#ffffff"/><g stroke-linecap="round" transform="translate(10 10) rotate(0 25 24.999999999999996)"><path d="M12.5 0 C19.36 0, 26.23 0, 37.5 0 C45.83 0, 50 4.17, 50 12.5 C50 19.71, 50 26.92, 50 37.5 C50 45.83, 45.83 50, 37.5 50 C29.66 50, 21.82 50, 12.5 50 C4.17 50, 0 45.83, 0 37.5 C0 32.15, 0 26.8, 0 12.5 C0 4.17, 4.17 0, 12.5 0" stroke="none" stroke-width="0" fill="#69db7c"/><path d="M12.5 0 C19.36 0, 26.22 0, 37.5 0 M12.5 0 C20.19 0, 27.88 0, 37.5 0 M37.5 0 C45.83 0, 50 4.17, 50 12.5 M37.5 0 C45.83 0, 50 4.17, 50 12.5 M50 12.5 C50 21.43, 50 30.37, 50 37.5 M50 12.5 C50 20.67, 50 28.85, 50 37.5 M50 37.5 C50 45.83, 45.83 50, 37.5 50 M50 37.5 C50 45.83, 45.83 50, 37.5 50 M37.5 50 C31.03 50, 24.57 50, 12.5 50 M37.5 50 C31.98 50, 26.46 50, 12.5 50 M12.5 50 C4.17 50, 0 45.83, 0 37.5 M12.5 50 C4.17 50, 0 45.83, 0 37.5 M0 37.5 C0 29.52, 0 21.54, 0 12.5 M0 37.5 C0 28.6, 0 19.7, 0 12.5 M0 12.5 C0 4.17, 4.17 0, 12.5 0 M0 12.5 C0 4.17, 4.17 0, 12.5 0" stroke="#1e1e1e" stroke-width="2" fill="none"/></g><g stroke-linecap="round" transform="translate(112.85726928710938 109.42861938476562) rotate(0 24.714263916015625 24.714263916015625)"><path d="M49.43 24.71 C49.43 26.14, 49.3 27.6, 49.05 29.01 C48.8 30.41, 48.43 31.82, 47.94 33.17 C47.45 34.51, 46.83 35.83, 46.12 37.07 C45.4 38.31, 44.57 39.5, 43.65 40.6 C42.73 41.7, 41.7 42.73, 40.6 43.65 C39.5 44.57, 38.31 45.4, 37.07 46.12 C35.83 46.83, 34.51 47.45, 33.17 47.94 C31.82 48.43, 30.41 48.8, 29.01 49.05 C27.6 49.3, 26.14 49.43, 24.71 49.43 C23.28 49.43, 21.83 49.3, 20.42 49.05 C19.01 48.8, 17.61 48.43, 16.26 47.94 C14.92 47.45, 13.6 46.83, 12.36 46.12 C11.12 45.4, 9.92 44.57, 8.83 43.65 C7.73 42.73, 6.7 41.7, 5.78 40.6 C4.86 39.5, 4.03 38.31, 3.31 37.07 C2.6 35.83, 1.98 34.51, 1.49 33.17 C1 31.82, 0.62 30.41, 0.38 29.01 C0.13 27.6, 0 26.14, 0 24.71 C0 23.28, 0.13 21.83, 0.38 20.42 C0.62 19.01, 1 17.61, 1.49 16.26 C1.98 14.92, 2.6 13.6, 3.31 12.36 C4.03 11.12, 4.86 9.92, 5.78 8.83 C6.7 7.73, 7.73 6.7, 8.83 5.78 C9.92 4.86, 11.12 4.03, 12.36 3.31 C13.6 2.6, 14.92 1.98, 16.26 1.49 C17.61 1, 19.01 0.62, 20.42 0.38 C21.83 0.13, 23.28 0, 24.71 0 C26.14 0, 27.6 0.13, 29.01 0.38 C30.41 0.62, 31.82 1, 33.17 1.49 C34.51 1.98, 35.83 2.6, 37.07 3.31 C38.31 4.03, 39.5 4.86, 40.6 5.78 C41.7 6.7, 42.73 7.73, 43.65 8.83 C44.57 9.92, 45.4 11.12, 46.12 12.36 C46.83 13.6, 47.45 14.92, 47.94 16.26 C48.43 17.61, 48.8 19.01, 49.05 20.42 C49.3 21.83, 49.37 24, 49.43 24.71 C49.49 25.43, 49.49 24, 49.43 24.71" stroke="none" stroke-width="0" fill="#69db7c"/><path d="M49.43 24.71 C49.43 26.14, 49.3 27.6, 49.05 29.01 C48.8 30.41, 48.43 31.82, 47.94 33.17 C47.45 34.51, 46.83 35.83, 46.12 37.07 C45.4 38.31, 44.57 39.5, 43.65 40.6 C42.73 41.7, 41.7 42.73, 40.6 43.65 C39.5 44.57, 38.31 45.4, 37.07 46.12 C35.83 46.83, 34.51 47.45, 33.17 47.94 C31.82 48.43, 30.41 48.8, 29.01 49.05 C27.6 49.3, 26.14 49.43, 24.71 49.43 C23.28 49.43, 21.83 49.3, 20.42 49.05 C19.01 48.8, 17.61 48.43, 16.26 47.94 C14.92 47.45, 13.6 46.83, 12.36 46.12 C11.12 45.4, 9.92 44.57, 8.83 43.65 C7.73 42.73, 6.7 41.7, 5.78 40.6 C4.86 39.5, 4.03 38.31, 3.31 37.07 C2.6 35.83, 1.98 34.51, 1.49 33.17 C1 31.82, 0.62 30.41, 0.38 29.01 C0.13 27.6, 0 26.14, 0 24.71 C0 23.28, 0.13 21.83, 0.38 20.42 C0.62 19.01, 1 17.61, 1.49 16.26 C1.98 14.92, 2.6 13.6, 3.31 12.36 C4.03 11.12, 4.86 9.92, 5.78 8.83 C6.7 7.73, 7.73 6.7, 8.83 5.78 C9.92 4.86, 11.12 4.03, 12.36 3.31 C13.6 2.6, 14.92 1.98, 16.26 1.49 C17.61 1, 19.01 0.62, 20.42 0.38 C21.83 0.13, 23.28 0, 24.71 0 C26.14 0, 27.6 0.13, 29.01 0.38 C30.41 0.62, 31.82 1, 33.17 1.49 C34.51 1.98, 35.83 2.6, 37.07 3.31 C38.31 4.03, 39.5 4.86, 40.6 5.78 C41.7 6.7, 42.73 7.73, 43.65 8.83 C44.57 9.92, 45.4 11.12, 46.12 12.36 C46.83 13.6, 47.45 14.92, 47.94 16.26 C48.43 17.61, 48.8 19.01, 49.05 20.42 C49.3 21.83, 49.37 24, 49.43 24.71 C49.49 25.43, 49.49 24, 49.43 24.71" stroke="#1e1e1e" stroke-width="2" fill="none"/></g><g stroke-linecap="round" transform="translate(64.42861938476562 51.7857208251953) rotate(0 21.857147216796875 32.78572082519533)"><path d="M27.5 8.25 C31.67 14.68, 35.85 21.1, 38.21 24.75 C43.71 33, 43.71 33, 38.21 41.25 C35.41 45.46, 32.6 49.67, 27.5 57.32 C22 65.57, 22 65.57, 16.5 57.32 C13.53 52.98, 10.55 48.63, 5.5 41.25 C0 33, 0 33, 5.5 24.75 C9.13 19.3, 12.77 13.85, 16.5 8.25 C22 0, 22 0, 27.5 8.25" stroke="none" stroke-width="0" fill="#69db7c"/><path d="M27.5 8.25 C30.38 12.69, 33.26 17.12, 38.21 24.75 M27.5 8.25 C31.33 14.15, 35.16 20.04, 38.21 24.75 M38.21 24.75 C43.71 33, 43.71 33, 38.21 41.25 M38.21 24.75 C43.71 33, 43.71 33, 38.21 41.25 M38.21 41.25 C35.53 45.27, 32.86 49.29, 27.5 57.32 M38.21 41.25 C35.44 45.41, 32.67 49.56, 27.5 57.32 M27.5 57.32 C22 65.57, 22 65.57, 16.5 57.32 M27.5 57.32 C22 65.57, 22 65.57, 16.5 57.32 M16.5 57.32 C12.3 51.19, 8.1 45.05, 5.5 41.25 M16.5 57.32 C12.99 52.19, 9.48 47.06, 5.5 41.25 M5.5 41.25 C0 33, 0 33, 5.5 24.75 M5.5 41.25 C0 33, 0 33, 5.5 24.75 M5.5 24.75 C8.91 19.63, 12.33 14.51, 16.5 8.25 M5.5 24.75 C8.52 20.22, 11.54 15.69, 16.5 8.25 M16.5 8.25 C22 0, 22 0, 27.5 8.25 M16.5 8.25 C22 0, 22 0, 27.5 8.25" stroke="#1e1e1e" stroke-width="2" fill="none"/></g></svg>