<svg version="1.1" xmlns="http://www.w3.org/2000/svg" viewBox="0 0 98.90577045691128 65.72508066667706" width="98.90577045691128" height="65.72508066667706" class="excalidraw-svg"><!-- svg-source:excalidraw --><metadata></metadata><defs><style class="style-fonts">
      </style></defs><g stroke-linecap="round" transform="translate(5 5) rotate(0 4 4)"><path d="M8 4 C8 4.23, 7.98 4.47, 7.94 4.69 C7.9 4.92, 7.84 5.15, 7.76 5.37 C7.68 5.59, 7.58 5.8, 7.46 6 C7.35 6.2, 7.21 6.39, 7.06 6.57 C6.92 6.75, 6.75 6.92, 6.57 7.06 C6.39 7.21, 6.2 7.35, 6 7.46 C5.8 7.58, 5.59 7.68, 5.37 7.76 C5.15 7.84, 4.92 7.9, 4.69 7.94 C4.47 7.98, 4.23 8, 4 8 C3.77 8, 3.53 7.98, 3.31 7.94 C3.08 7.9, 2.85 7.84, 2.63 7.76 C2.41 7.68, 2.2 7.58, 2 7.46 C1.8 7.35, 1.61 7.21, 1.43 7.06 C1.25 6.92, 1.08 6.75, 0.94 6.57 C0.79 6.39, 0.65 6.2, 0.54 6 C0.42 5.8, 0.32 5.59, 0.24 5.37 C0.16 5.15, 0.1 4.92, 0.06 4.69 C0.02 4.47, 0 4.23, 0 4 C0 3.77, 0.02 3.53, 0.06 3.31 C0.1 3.08, 0.16 2.85, 0.24 2.63 C0.32 2.41, 0.42 2.2, 0.54 2 C0.65 1.8, 0.79 1.61, 0.94 1.43 C1.08 1.25, 1.25 1.08, 1.43 0.94 C1.61 0.79, 1.8 0.65, 2 0.54 C2.2 0.42, 2.41 0.32, 2.63 0.24 C2.85 0.16, 3.08 0.1, 3.31 0.06 C3.53 0.02, 3.77 0, 4 0 C4.23 0, 4.47 0.02, 4.69 0.06 C4.92 0.1, 5.15 0.16, 5.37 0.24 C5.59 0.32, 5.8 0.42, 6 0.54 C6.2 0.65, 6.39 0.79, 6.57 0.94 C6.75 1.08, 6.92 1.25, 7.06 1.43 C7.21 1.61, 7.35 1.8, 7.46 2 C7.58 2.2, 7.68 2.41, 7.76 2.63 C7.84 2.85, 7.9 3.08, 7.94 3.31 C7.98 3.53, 7.99 3.88, 8 4 C8.01 4.12, 8.01 3.88, 8 4" stroke="none" stroke-width="0" fill="#1e1e1e"></path><path d="M8 4 C8 4.23, 7.98 4.47, 7.94 4.69 C7.9 4.92, 7.84 5.15, 7.76 5.37 C7.68 5.59, 7.58 5.8, 7.46 6 C7.35 6.2, 7.21 6.39, 7.06 6.57 C6.92 6.75, 6.75 6.92, 6.57 7.06 C6.39 7.21, 6.2 7.35, 6 7.46 C5.8 7.58, 5.59 7.68, 5.37 7.76 C5.15 7.84, 4.92 7.9, 4.69 7.94 C4.47 7.98, 4.23 8, 4 8 C3.77 8, 3.53 7.98, 3.31 7.94 C3.08 7.9, 2.85 7.84, 2.63 7.76 C2.41 7.68, 2.2 7.58, 2 7.46 C1.8 7.35, 1.61 7.21, 1.43 7.06 C1.25 6.92, 1.08 6.75, 0.94 6.57 C0.79 6.39, 0.65 6.2, 0.54 6 C0.42 5.8, 0.32 5.59, 0.24 5.37 C0.16 5.15, 0.1 4.92, 0.06 4.69 C0.02 4.47, 0 4.23, 0 4 C0 3.77, 0.02 3.53, 0.06 3.31 C0.1 3.08, 0.16 2.85, 0.24 2.63 C0.32 2.41, 0.42 2.2, 0.54 2 C0.65 1.8, 0.79 1.61, 0.94 1.43 C1.08 1.25, 1.25 1.08, 1.43 0.94 C1.61 0.79, 1.8 0.65, 2 0.54 C2.2 0.42, 2.41 0.32, 2.63 0.24 C2.85 0.16, 3.08 0.1, 3.31 0.06 C3.53 0.02, 3.77 0, 4 0 C4.23 0, 4.47 0.02, 4.69 0.06 C4.92 0.1, 5.15 0.16, 5.37 0.24 C5.59 0.32, 5.8 0.42, 6 0.54 C6.2 0.65, 6.39 0.79, 6.57 0.94 C6.75 1.08, 6.92 1.25, 7.06 1.43 C7.21 1.61, 7.35 1.8, 7.46 2 C7.58 2.2, 7.68 2.41, 7.76 2.63 C7.84 2.85, 7.9 3.08, 7.94 3.31 C7.98 3.53, 7.99 3.88, 8 4 C8.01 4.12, 8.01 3.88, 8 4" stroke="transparent" stroke-width="0.5" fill="none"></path></g><g stroke-linecap="round" transform="translate(22.4483884562718 5) rotate(0 35.72869100031974 4)"><path d="M2 0 C23.49 0, 44.99 0, 69.46 0 C70.79 0, 71.46 0.67, 71.46 2 C71.46 3.25, 71.46 4.49, 71.46 6 C71.46 7.33, 70.79 8, 69.46 8 C53.92 8, 38.38 8, 2 8 C0.67 8, 0 7.33, 0 6 C0 5.04, 0 4.07, 0 2 C0 0.67, 0.67 0, 2 0" stroke="none" stroke-width="0" fill="#1e1e1e"></path><path d="M2 0 C16.22 0, 30.44 0, 69.46 0 M2 0 C15.8 0, 29.6 0, 69.46 0 M69.46 0 C70.79 0, 71.46 0.67, 71.46 2 M69.46 0 C70.79 0, 71.46 0.67, 71.46 2 M71.46 2 C71.46 3.1, 71.46 4.19, 71.46 6 M71.46 2 C71.46 2.94, 71.46 3.89, 71.46 6 M71.46 6 C71.46 7.33, 70.79 8, 69.46 8 M71.46 6 C71.46 7.33, 70.79 8, 69.46 8 M69.46 8 C51.59 8, 33.73 8, 2 8 M69.46 8 C50.27 8, 31.09 8, 2 8 M2 8 C0.67 8, 0 7.33, 0 6 M2 8 C0.67 8, 0 7.33, 0 6 M0 6 C0 4.74, 0 3.49, 0 2 M0 6 C0 4.51, 0 3.01, 0 2 M0 2 C0 0.67, 0.67 0, 2 0 M0 2 C0 0.67, 0.67 0, 2 0" stroke="transparent" stroke-width="0.5" fill="none"></path></g><g stroke-linecap="round" transform="translate(5 28.862540333338075) rotate(0 4 4)"><path d="M8 4 C8 4.23, 7.98 4.47, 7.94 4.69 C7.9 4.92, 7.84 5.15, 7.76 5.37 C7.68 5.59, 7.58 5.8, 7.46 6 C7.35 6.2, 7.21 6.39, 7.06 6.57 C6.92 6.75, 6.75 6.92, 6.57 7.06 C6.39 7.21, 6.2 7.35, 6 7.46 C5.8 7.58, 5.59 7.68, 5.37 7.76 C5.15 7.84, 4.92 7.9, 4.69 7.94 C4.47 7.98, 4.23 8, 4 8 C3.77 8, 3.53 7.98, 3.31 7.94 C3.08 7.9, 2.85 7.84, 2.63 7.76 C2.41 7.68, 2.2 7.58, 2 7.46 C1.8 7.35, 1.61 7.21, 1.43 7.06 C1.25 6.92, 1.08 6.75, 0.94 6.57 C0.79 6.39, 0.65 6.2, 0.54 6 C0.42 5.8, 0.32 5.59, 0.24 5.37 C0.16 5.15, 0.1 4.92, 0.06 4.69 C0.02 4.47, 0 4.23, 0 4 C0 3.77, 0.02 3.53, 0.06 3.31 C0.1 3.08, 0.16 2.85, 0.24 2.63 C0.32 2.41, 0.42 2.2, 0.54 2 C0.65 1.8, 0.79 1.61, 0.94 1.43 C1.08 1.25, 1.25 1.08, 1.43 0.94 C1.61 0.79, 1.8 0.65, 2 0.54 C2.2 0.42, 2.41 0.32, 2.63 0.24 C2.85 0.16, 3.08 0.1, 3.31 0.06 C3.53 0.02, 3.77 0, 4 0 C4.23 0, 4.47 0.02, 4.69 0.06 C4.92 0.1, 5.15 0.16, 5.37 0.24 C5.59 0.32, 5.8 0.42, 6 0.54 C6.2 0.65, 6.39 0.79, 6.57 0.94 C6.75 1.08, 6.92 1.25, 7.06 1.43 C7.21 1.61, 7.35 1.8, 7.46 2 C7.58 2.2, 7.68 2.41, 7.76 2.63 C7.84 2.85, 7.9 3.08, 7.94 3.31 C7.98 3.53, 7.99 3.88, 8 4 C8.01 4.12, 8.01 3.88, 8 4" stroke="none" stroke-width="0" fill="#1e1e1e"></path><path d="M8 4 C8 4.23, 7.98 4.47, 7.94 4.69 C7.9 4.92, 7.84 5.15, 7.76 5.37 C7.68 5.59, 7.58 5.8, 7.46 6 C7.35 6.2, 7.21 6.39, 7.06 6.57 C6.92 6.75, 6.75 6.92, 6.57 7.06 C6.39 7.21, 6.2 7.35, 6 7.46 C5.8 7.58, 5.59 7.68, 5.37 7.76 C5.15 7.84, 4.92 7.9, 4.69 7.94 C4.47 7.98, 4.23 8, 4 8 C3.77 8, 3.53 7.98, 3.31 7.94 C3.08 7.9, 2.85 7.84, 2.63 7.76 C2.41 7.68, 2.2 7.58, 2 7.46 C1.8 7.35, 1.61 7.21, 1.43 7.06 C1.25 6.92, 1.08 6.75, 0.94 6.57 C0.79 6.39, 0.65 6.2, 0.54 6 C0.42 5.8, 0.32 5.59, 0.24 5.37 C0.16 5.15, 0.1 4.92, 0.06 4.69 C0.02 4.47, 0 4.23, 0 4 C0 3.77, 0.02 3.53, 0.06 3.31 C0.1 3.08, 0.16 2.85, 0.24 2.63 C0.32 2.41, 0.42 2.2, 0.54 2 C0.65 1.8, 0.79 1.61, 0.94 1.43 C1.08 1.25, 1.25 1.08, 1.43 0.94 C1.61 0.79, 1.8 0.65, 2 0.54 C2.2 0.42, 2.41 0.32, 2.63 0.24 C2.85 0.16, 3.08 0.1, 3.31 0.06 C3.53 0.02, 3.77 0, 4 0 C4.23 0, 4.47 0.02, 4.69 0.06 C4.92 0.1, 5.15 0.16, 5.37 0.24 C5.59 0.32, 5.8 0.42, 6 0.54 C6.2 0.65, 6.39 0.79, 6.57 0.94 C6.75 1.08, 6.92 1.25, 7.06 1.43 C7.21 1.61, 7.35 1.8, 7.46 2 C7.58 2.2, 7.68 2.41, 7.76 2.63 C7.84 2.85, 7.9 3.08, 7.94 3.31 C7.98 3.53, 7.99 3.88, 8 4 C8.01 4.12, 8.01 3.88, 8 4" stroke="transparent" stroke-width="0.5" fill="none"></path></g><g stroke-linecap="round" transform="translate(22.448388456271744 28.862540333338075) rotate(0 35.72869100031974 4)"><path d="M2 0 C17.99 0, 33.98 0, 69.46 0 C70.79 0, 71.46 0.67, 71.46 2 C71.46 3.12, 71.46 4.23, 71.46 6 C71.46 7.33, 70.79 8, 69.46 8 C52.34 8, 35.23 8, 2 8 C0.67 8, 0 7.33, 0 6 C0 4.82, 0 3.65, 0 2 C0 0.67, 0.67 0, 2 0" stroke="none" stroke-width="0" fill="#1e1e1e"></path><path d="M2 0 C28.45 0, 54.91 0, 69.46 0 M2 0 C25.38 0, 48.77 0, 69.46 0 M69.46 0 C70.79 0, 71.46 0.67, 71.46 2 M69.46 0 C70.79 0, 71.46 0.67, 71.46 2 M71.46 2 C71.46 3.19, 71.46 4.37, 71.46 6 M71.46 2 C71.46 3.33, 71.46 4.65, 71.46 6 M71.46 6 C71.46 7.33, 70.79 8, 69.46 8 M71.46 6 C71.46 7.33, 70.79 8, 69.46 8 M69.46 8 C44.06 8, 18.66 8, 2 8 M69.46 8 C46.29 8, 23.12 8, 2 8 M2 8 C0.67 8, 0 7.33, 0 6 M2 8 C0.67 8, 0 7.33, 0 6 M0 6 C0 4.91, 0 3.83, 0 2 M0 6 C0 5.16, 0 4.31, 0 2 M0 2 C0 0.67, 0.67 0, 2 0 M0 2 C0 0.67, 0.67 0, 2 0" stroke="transparent" stroke-width="0.5" fill="none"></path></g><g stroke-linecap="round" transform="translate(5 52.72508066667706) rotate(0 4 4)"><path d="M8 4 C8 4.23, 7.98 4.47, 7.94 4.69 C7.9 4.92, 7.84 5.15, 7.76 5.37 C7.68 5.59, 7.58 5.8, 7.46 6 C7.35 6.2, 7.21 6.39, 7.06 6.57 C6.92 6.75, 6.75 6.92, 6.57 7.06 C6.39 7.21, 6.2 7.35, 6 7.46 C5.8 7.58, 5.59 7.68, 5.37 7.76 C5.15 7.84, 4.92 7.9, 4.69 7.94 C4.47 7.98, 4.23 8, 4 8 C3.77 8, 3.53 7.98, 3.31 7.94 C3.08 7.9, 2.85 7.84, 2.63 7.76 C2.41 7.68, 2.2 7.58, 2 7.46 C1.8 7.35, 1.61 7.21, 1.43 7.06 C1.25 6.92, 1.08 6.75, 0.94 6.57 C0.79 6.39, 0.65 6.2, 0.54 6 C0.42 5.8, 0.32 5.59, 0.24 5.37 C0.16 5.15, 0.1 4.92, 0.06 4.69 C0.02 4.47, 0 4.23, 0 4 C0 3.77, 0.02 3.53, 0.06 3.31 C0.1 3.08, 0.16 2.85, 0.24 2.63 C0.32 2.41, 0.42 2.2, 0.54 2 C0.65 1.8, 0.79 1.61, 0.94 1.43 C1.08 1.25, 1.25 1.08, 1.43 0.94 C1.61 0.79, 1.8 0.65, 2 0.54 C2.2 0.42, 2.41 0.32, 2.63 0.24 C2.85 0.16, 3.08 0.1, 3.31 0.06 C3.53 0.02, 3.77 0, 4 0 C4.23 0, 4.47 0.02, 4.69 0.06 C4.92 0.1, 5.15 0.16, 5.37 0.24 C5.59 0.32, 5.8 0.42, 6 0.54 C6.2 0.65, 6.39 0.79, 6.57 0.94 C6.75 1.08, 6.92 1.25, 7.06 1.43 C7.21 1.61, 7.35 1.8, 7.46 2 C7.58 2.2, 7.68 2.41, 7.76 2.63 C7.84 2.85, 7.9 3.08, 7.94 3.31 C7.98 3.53, 7.99 3.88, 8 4 C8.01 4.12, 8.01 3.88, 8 4" stroke="none" stroke-width="0" fill="#1e1e1e"></path><path d="M8 4 C8 4.23, 7.98 4.47, 7.94 4.69 C7.9 4.92, 7.84 5.15, 7.76 5.37 C7.68 5.59, 7.58 5.8, 7.46 6 C7.35 6.2, 7.21 6.39, 7.06 6.57 C6.92 6.75, 6.75 6.92, 6.57 7.06 C6.39 7.21, 6.2 7.35, 6 7.46 C5.8 7.58, 5.59 7.68, 5.37 7.76 C5.15 7.84, 4.92 7.9, 4.69 7.94 C4.47 7.98, 4.23 8, 4 8 C3.77 8, 3.53 7.98, 3.31 7.94 C3.08 7.9, 2.85 7.84, 2.63 7.76 C2.41 7.68, 2.2 7.58, 2 7.46 C1.8 7.35, 1.61 7.21, 1.43 7.06 C1.25 6.92, 1.08 6.75, 0.94 6.57 C0.79 6.39, 0.65 6.2, 0.54 6 C0.42 5.8, 0.32 5.59, 0.24 5.37 C0.16 5.15, 0.1 4.92, 0.06 4.69 C0.02 4.47, 0 4.23, 0 4 C0 3.77, 0.02 3.53, 0.06 3.31 C0.1 3.08, 0.16 2.85, 0.24 2.63 C0.32 2.41, 0.42 2.2, 0.54 2 C0.65 1.8, 0.79 1.61, 0.94 1.43 C1.08 1.25, 1.25 1.08, 1.43 0.94 C1.61 0.79, 1.8 0.65, 2 0.54 C2.2 0.42, 2.41 0.32, 2.63 0.24 C2.85 0.16, 3.08 0.1, 3.31 0.06 C3.53 0.02, 3.77 0, 4 0 C4.23 0, 4.47 0.02, 4.69 0.06 C4.92 0.1, 5.15 0.16, 5.37 0.24 C5.59 0.32, 5.8 0.42, 6 0.54 C6.2 0.65, 6.39 0.79, 6.57 0.94 C6.75 1.08, 6.92 1.25, 7.06 1.43 C7.21 1.61, 7.35 1.8, 7.46 2 C7.58 2.2, 7.68 2.41, 7.76 2.63 C7.84 2.85, 7.9 3.08, 7.94 3.31 C7.98 3.53, 7.99 3.88, 8 4 C8.01 4.12, 8.01 3.88, 8 4" stroke="transparent" stroke-width="0.5" fill="none"></path></g><g stroke-linecap="round" transform="translate(22.4483884562718 52.72508066667706) rotate(0 35.72869100031974 4)"><path d="M2 0 C20.38 0, 38.77 0, 69.46 0 C70.79 0, 71.46 0.67, 71.46 2 C71.46 3.45, 71.46 4.89, 71.46 6 C71.46 7.33, 70.79 8, 69.46 8 C53.62 8, 37.79 8, 2 8 C0.67 8, 0 7.33, 0 6 C0 4.69, 0 3.37, 0 2 C0 0.67, 0.67 0, 2 0" stroke="none" stroke-width="0" fill="#1e1e1e"></path><path d="M2 0 C28.71 0, 55.41 0, 69.46 0 M2 0 C28.83 0, 55.66 0, 69.46 0 M69.46 0 C70.79 0, 71.46 0.67, 71.46 2 M69.46 0 C70.79 0, 71.46 0.67, 71.46 2 M71.46 2 C71.46 3.23, 71.46 4.45, 71.46 6 M71.46 2 C71.46 2.8, 71.46 3.61, 71.46 6 M71.46 6 C71.46 7.33, 70.79 8, 69.46 8 M71.46 6 C71.46 7.33, 70.79 8, 69.46 8 M69.46 8 C54.83 8, 40.2 8, 2 8 M69.46 8 C52.06 8, 34.66 8, 2 8 M2 8 C0.67 8, 0 7.33, 0 6 M2 8 C0.67 8, 0 7.33, 0 6 M0 6 C0 4.86, 0 3.72, 0 2 M0 6 C0 5.12, 0 4.25, 0 2 M0 2 C0 0.67, 0.67 0, 2 0 M0 2 C0 0.67, 0.67 0, 2 0" stroke="transparent" stroke-width="0.5" fill="none"></path></g></svg>