<svg>
    <g style="scale: 0.8;" stroke="none" stroke-width="1" fill="none" fill-rule="evenodd">
        <path d="M15.1707057,14 C15.0601542,14.3127789 15,14.6493646 15,15 C15,15.3506354 15.0601542,15.6872211 15.1707057,16 L11,16 C9.8954305,16 9,15.1045695 9,14 L9,6 L4.82929429,6 C4.93984578,5.68722107 5,5.35063542 5,5 C5,4.64936458 4.93984578,4.31277893 4.82929429,4 L9,4 C10.1045695,4 11,4.8954305 11,6 L11,14 L15.1707057,14 Z M16.2675644,14 L17,14 L17,16 L16.2675644,16 C16.0973943,15.7058266 16,15.3642871 16,15 C16,14.6357129 16.0973943,14.2941734 16.2675644,14 Z M3.73243561,4 C3.90260571,4.29417337 4,4.63571286 4,5 C4,5.36428714 3.90260571,5.70582663 3.73243561,6 L3,6 L3,4 L3.73243561,4 Z" fill="#757575" fill-rule="nonzero"></path>
        <path d="M2,7 C3.1045695,7 4,6.1045695 4,5 C4,3.8954305 3.1045695,3 2,3 C0.8954305,3 0,3.8954305 0,5 C0,6.1045695 0.8954305,7 2,7 Z" fill="#424242"></path>
        <circle fill="#424242" cx="18" cy="15" r="2"></circle>
    </g>
</svg>